<svg xmlns="http://www.w3.org/2000/svg" xmlns:xlink="http://www.w3.org/1999/xlink" version="1.1" x="16px" y="16px" viewBox="0 0 100 100" enable-background="new 0 0 100 100" xml:space="preserve"><path d="M32.651,67.833V56.095h-4.587v-4.198h14.292v4.198h-4.588v11.738H32.651z M46.336,67.833V51.896h5.214v15.937H46.336z   M56.904,67.833V51.896h6.534c1.407,0,2.431,0.037,3.073,0.108c0.642,0.072,1.193,0.191,1.655,0.357  c0.808,0.303,1.426,0.775,1.855,1.417c0.429,0.642,0.644,1.421,0.644,2.337c0,0.722-0.161,1.351-0.481,1.888  c-0.321,0.537-0.803,0.979-1.444,1.325c0.844,0.303,1.468,0.758,1.871,1.363c0.404,0.606,0.606,1.393,0.606,2.358  c0,0.945-0.196,1.766-0.59,2.462c-0.394,0.695-0.965,1.231-1.715,1.606c-0.505,0.26-1.082,0.443-1.73,0.552  c-0.649,0.108-1.725,0.162-3.225,0.162H56.904z M61.87,58.258h2.109c0.707,0,1.205-0.104,1.493-0.313s0.433-0.563,0.433-1.061  c0-0.526-0.155-0.887-0.465-1.081c-0.311-0.195-1.028-0.293-2.153-0.293H61.87V58.258z M61.87,64.111h2.369  c0.786,0,1.346-0.115,1.677-0.347c0.332-0.23,0.498-0.609,0.498-1.136s-0.17-0.901-0.509-1.125s-0.908-0.335-1.709-0.335H61.87  V64.111z M85.248,2.083h-6.916H21.33H7.531c-2.205,0-4,1.795-4,4v34.854v37.89v15.09c0,2.205,1.795,4,4,4h84.932  c2.205,0,4-1.795,4-4v-15.09v-37.89V14.593L85.248,2.083z M59.998,21.166h4.416c1.381,0,2.5-1.245,2.5-2.782V5.083h8.418v19.166  c0,0.552-0.449,1-1,1H33.459V5.083h24.039v13.301C57.498,19.921,58.617,21.166,59.998,21.166z M30.459,5.083v20.166H25.33  c-0.553,0-1-0.448-1-1V5.083H30.459z M6.531,43.938h86.932v31.89H6.531V43.938z M93.463,93.917c0,0.551-0.449,1-1,1H7.531  c-0.551,0-1-0.449-1-1v-15.09h86.932V93.917z M6.531,40.938V6.083c0-0.551,0.449-1,1-1H21.33v19.166c0,2.206,1.793,4,4,4h49.002  c2.205,0,4-1.794,4-4V5.083h5.576l9.555,10.657v25.197H6.531z"/></svg>